# xmcd
#
# Track frame offsets:
#	150
#	17417
#	34684
#	50881
#	64560
#	79327
#	109412
#	125629
#	148463
#	167380
#	182377
#	205407
#	222999
#	238846
#	255195
#	272800
#	291912
#	312361
#
# Disc length: 4405
#
# Revision: 2
# Processed by: cddbd v1.5.1PL0 Copyright (c) Steve Scherf et al.
# Submitted via: audiograbber 1.80
# Normalized: r1:TDELIM( - )
#
DISCID=11113312
DTITLE=Larry Adler - The glory of Gershwin
DYEAR=1900
DGENRE=
TTITLE0=Peter Gabriel - Summertime
TTITLE1=Chris de Burgh - Do what you do
TTITLE2=Sting - Nice work if you can get it
TTITLE3=Lisa Stansfield - They can`t take that away from me
TTITLE4=Elton John - Someone to watch over me, Love is here to stay
TTITLE5=Carly Simon - I`ve got a crush on you
TTITLE6=Elvis Costello - But not for me
TTITLE7=Cher - It ain`t necessarily so
TTITLE8=Kate Bush - The man I love
TTITLE9=Jon Bon Jovi - How long has this been going on
TTITLE10=Oleta Adams - Embracable you
TTITLE11=Willard White - Hidin' my time
TTITLE12=Sinead O'Connor - My Man's gone now
TTITLE13=Robert Palmer - I got Rhythm
TTITLE14=Meat Loaf - Somebody loves me
TTITLE15=Issy van Randwyck - I'll build a stairway to paradise
TTITLE16=Courtney Pine - Summertime
TTITLE17=Larry Adler and George Michael - Rhapsody in blue
EXTD=
EXTT0=
EXTT1=
EXTT2=
EXTT3=
EXTT4=
EXTT5=
EXTT6=
EXTT7=
EXTT8=
EXTT9=
EXTT10=
EXTT11=
EXTT12=
EXTT13=
EXTT14=
EXTT15=
EXTT16=
EXTT17=
PLAYORDER=
